<svg width="64" height="64" viewBox="0 0 64 64" fill="none" xmlns="http://www.w3.org/2000/svg">
<circle cx="32" cy="32" r="31.5" fill="#D9D9D9" stroke="#2A2927"/>
<path d="M7.56 19.28C7.90667 19.12 8.38667 18.9733 9 18.84C9.64 18.7067 10.3333 18.64 11.08 18.64C11.8533 18.64 12.4133 18.8 12.76 19.12C13.1867 18.96 13.76 18.88 14.48 18.88C16 18.88 17 19.6133 17.48 21.08C18.0133 22.7867 18.9067 28 20.16 36.72C21.6 28.4267 22.56 23.4667 23.04 21.84C23.52 20.1867 24.16 19.2133 24.96 18.92C25.4933 18.76 26.1467 18.7467 26.92 18.88C27.6133 18.72 28.3467 18.64 29.12 18.64C31.0933 18.64 32.36 18.9733 32.92 19.64C33.5067 20.3067 33.8 21.4533 33.8 23.08C33.8 23.1333 33.6267 26.3067 33.28 32.6C32.9333 38.8933 32.76 43.44 32.76 46.24C31.7467 46.7467 30.4267 47 28.8 47C27.1733 47 26.3333 46.1867 26.28 44.56L25.96 29.8C24.0133 40.1733 22.12 45.36 20.28 45.36H19.72C18.9467 45.36 18.28 44.9733 17.72 44.2C16.4667 42.5467 15.0933 37.6533 13.6 29.52C13.2 36.2667 13 41.84 13 46.24C12.04 46.72 11 46.96 9.88 46.96C8.01333 46.96 7.04 46.16 6.96 44.56L5.96 20.4C6.04 20.24 6.24 20.0533 6.56 19.84C6.88 19.6 7.21333 19.4133 7.56 19.28ZM35.8084 19.96C36.6084 19.08 37.8884 18.64 39.6484 18.64C41.4351 18.64 42.7018 19.48 43.4484 21.16C44.9418 19.32 46.6484 18.4 48.5684 18.4C51.5284 18.4 53.8484 19.5333 55.5284 21.8C57.2084 24.04 58.0484 27.4267 58.0484 31.96C58.0484 36.4667 57.0218 40.0667 54.9684 42.76C52.9151 45.4533 50.3818 46.8 47.3684 46.8C45.7151 46.8 44.2751 46.32 43.0484 45.36C42.3284 46.4533 41.3151 47 40.0084 47C39.3151 47 38.6218 46.8667 37.9284 46.6C37.2351 46.3067 36.7151 46.0133 36.3684 45.72L35.8484 45.32C36.1151 44.1467 36.2484 41.4267 36.2484 37.16C36.2484 30.7333 36.1418 25.5733 35.9284 21.68L35.8084 19.96ZM46.4884 42.32C47.5818 42.32 48.5018 41.6533 49.2484 40.32C50.0218 38.9867 50.4084 37.04 50.4084 34.48C50.4084 30 48.4884 27.3867 44.6484 26.64C44.7551 27.7067 44.8084 29.84 44.8084 33.04C44.8084 36.24 44.6351 39.0133 44.2884 41.36C45.0618 42 45.7951 42.32 46.4884 42.32Z" fill="#2A2927"/>
</svg>
